# Blender v2.77 (sub 0) OBJ File: 'wizardhat.blend'
# www.blender.org
mtllib wizardhat.mtl
o Cone
v -0.393909 0.086432 -1.311032
v -0.198819 0.086432 -1.291817
v -0.011226 0.086432 -1.234911
v 0.161661 0.086432 -1.142501
v 0.313198 0.086432 -1.018139
v 0.437560 0.086432 -0.866602
v 0.529970 0.086432 -0.693715
v 0.586876 0.086432 -0.506122
v 0.606091 0.086432 -0.311032
v -0.388066 3.011985 0.045743
v 0.586876 0.086432 -0.115942
v 0.529970 0.086432 0.071651
v 0.437560 0.086432 0.244538
v 0.313198 0.086432 0.396075
v 0.161661 0.086432 0.520438
v -0.011226 0.086432 0.612848
v -0.198819 0.086432 0.669753
v -0.393909 0.086432 0.688968
v -0.589000 0.086432 0.669753
v -0.776593 0.086432 0.612848
v -0.949480 0.086432 0.520437
v -1.101016 0.086432 0.396075
v -1.225379 0.086432 0.244538
v -1.317789 0.086432 0.071651
v -1.374695 0.086432 -0.115942
v -1.393909 0.086432 -0.311033
v -1.374694 0.086432 -0.506123
v -1.317788 0.086432 -0.693716
v -1.225378 0.086432 -0.866603
v -1.101015 0.086432 -1.018139
v -0.949478 0.086432 -1.142502
v -0.776591 0.086432 -1.234912
v -0.588998 0.086432 -1.291817
v -0.407792 0.043962 -0.250803
v -0.407792 0.043962 -1.897560
v -0.729058 0.043962 -1.865918
v -1.037979 0.043962 -1.772207
v -1.322681 0.043962 -1.620031
v -1.572225 0.043962 -1.415236
v -1.777020 0.043962 -1.165692
v -1.929197 0.043962 -0.880989
v -2.022907 0.043962 -0.572069
v -2.054548 0.043962 -0.250803
v -2.022907 0.043962 0.070463
v -1.929197 0.043962 0.379384
v -1.777020 0.043962 0.664086
v -1.572225 0.043962 0.913630
v -1.322681 0.043962 1.118426
v -1.037978 0.043962 1.270602
v -0.729058 0.043962 1.364312
v -0.407792 0.043962 1.395954
v -0.086525 0.043962 1.364312
v 0.222395 0.043962 1.270602
v 0.507098 0.043962 1.118425
v 0.756642 0.043962 0.913630
v 0.961437 0.043962 0.664085
v 1.113613 0.043962 0.379383
v 1.207323 0.043962 0.070462
v 1.238965 0.043962 -0.250804
v 1.207323 0.043962 -0.572071
v 1.113612 0.043962 -0.880991
v 0.961435 0.043962 -1.165693
v 0.756639 0.043962 -1.415237
v 0.507095 0.043962 -1.620032
v 0.222392 0.043962 -1.772209
v -0.086528 0.043962 -1.865918
vn 0.0890 0.4189 -0.9037
vn 0.2641 0.4151 -0.8706
vn 0.4304 0.4079 -0.8052
vn 0.5821 0.3975 -0.7093
vn 0.7137 0.3841 -0.5857
vn 0.8200 0.3681 -0.4383
vn 0.8964 0.3500 -0.2719
vn 0.9393 0.3305 -0.0925
vn 0.9461 0.3101 0.0932
vn 0.9159 0.2899 0.2778
vn 0.8491 0.2705 0.4538
vn 0.7479 0.2528 0.6138
vn 0.6162 0.2376 0.7509
vn 0.4592 0.2257 0.8592
vn 0.2833 0.2176 0.9340
vn 0.0958 0.2136 0.9722
vn -0.0957 0.2139 0.9721
vn -0.2833 0.2186 0.9338
vn -0.4590 0.2274 0.8588
vn -0.6159 0.2399 0.7504
vn -0.7473 0.2556 0.6133
vn -0.8483 0.2736 0.4534
vn -0.9149 0.2932 0.2775
vn -0.9450 0.3136 0.0931
vn -0.9381 0.3338 -0.0924
vn -0.8953 0.3532 -0.2716
vn -0.8190 0.3709 -0.4378
vn -0.7129 0.3865 -0.5851
vn -0.5816 0.3994 -0.7087
vn -0.4301 0.4093 -0.8046
vn -0.2640 0.4160 -0.8702
vn -0.0890 0.4192 -0.9035
vn 0.0000 -1.0000 -0.0000
vn 0.0000 1.0000 0.0000
usemtl None
s off
f 1//1 10//1 2//1
f 2//2 10//2 3//2
f 3//3 10//3 4//3
f 4//4 10//4 5//4
f 5//5 10//5 6//5
f 6//6 10//6 7//6
f 7//7 10//7 8//7
f 8//8 10//8 9//8
f 9//9 10//9 11//9
f 11//10 10//10 12//10
f 12//11 10//11 13//11
f 13//12 10//12 14//12
f 14//13 10//13 15//13
f 15//14 10//14 16//14
f 16//15 10//15 17//15
f 17//16 10//16 18//16
f 18//17 10//17 19//17
f 19//18 10//18 20//18
f 20//19 10//19 21//19
f 21//20 10//20 22//20
f 22//21 10//21 23//21
f 23//22 10//22 24//22
f 24//23 10//23 25//23
f 25//24 10//24 26//24
f 26//25 10//25 27//25
f 27//26 10//26 28//26
f 28//27 10//27 29//27
f 29//28 10//28 30//28
f 30//29 10//29 31//29
f 31//30 10//30 32//30
f 32//31 10//31 33//31
f 33//32 10//32 1//32
f 1//33 2//33 3//33 4//33 5//33 6//33 7//33 8//33 9//33 11//33 12//33 13//33 14//33 15//33 16//33 17//33 18//33 19//33 20//33 21//33 22//33 23//33 24//33 25//33 26//33 27//33 28//33 29//33 30//33 31//33 32//33 33//33
f 34//34 35//34 36//34
f 34//34 36//34 37//34
f 34//34 37//34 38//34
f 34//34 38//34 39//34
f 34//34 39//34 40//34
f 34//34 40//34 41//34
f 34//34 41//34 42//34
f 34//34 42//34 43//34
f 34//34 43//34 44//34
f 34//34 44//34 45//34
f 34//34 45//34 46//34
f 34//34 46//34 47//34
f 34//34 47//34 48//34
f 34//34 48//34 49//34
f 34//34 49//34 50//34
f 34//34 50//34 51//34
f 34//34 51//34 52//34
f 34//34 52//34 53//34
f 34//34 53//34 54//34
f 34//34 54//34 55//34
f 34//34 55//34 56//34
f 34//34 56//34 57//34
f 34//34 57//34 58//34
f 34//34 58//34 59//34
f 34//34 59//34 60//34
f 34//34 60//34 61//34
f 34//34 61//34 62//34
f 34//34 62//34 63//34
f 34//34 63//34 64//34
f 34//34 64//34 65//34
f 34//34 65//34 66//34
f 34//34 66//34 35//34
